<svg width="26" height="26" viewBox="0 0 26 26" fill="none" xmlns="http://www.w3.org/2000/svg">
<path d="M13 25.5C11.2917 25.5 9.67708 25.1717 8.15625 24.515C6.63542 23.8583 5.3075 22.9625 4.1725 21.8275C3.0375 20.6925 2.14167 19.3646 1.485 17.8438C0.828333 16.3229 0.5 14.7083 0.5 13C0.5 11.2708 0.83875 9.64583 1.51625 8.125C2.19375 6.60417 3.11042 5.28125 4.26625 4.15625C5.42208 3.03125 6.77083 2.14083 8.3125 1.485C9.85417 0.829167 11.5 0.500833 13.25 0.5C14.9167 0.5 16.4896 0.786667 17.9688 1.36C19.4479 1.93333 20.745 2.725 21.86 3.735C22.975 4.745 23.8604 5.94292 24.5162 7.32875C25.1721 8.71458 25.5 10.2092 25.5 11.8125C25.5 14.2083 24.7708 16.0471 23.3125 17.3288C21.8542 18.6104 20.0833 19.2508 18 19.25H15.6875C15.5 19.25 15.37 19.3021 15.2975 19.4062C15.225 19.5104 15.1883 19.625 15.1875 19.75C15.1875 20 15.3438 20.3596 15.6562 20.8288C15.9688 21.2979 16.125 21.8342 16.125 22.4375C16.125 23.4792 15.8387 24.25 15.2662 24.75C14.6937 25.25 13.9383 25.5 13 25.5ZM6.125 14.25C6.66667 14.25 7.11458 14.0729 7.46875 13.7188C7.82292 13.3646 8 12.9167 8 12.375C8 11.8333 7.82292 11.3854 7.46875 11.0312C7.11458 10.6771 6.66667 10.5 6.125 10.5C5.58333 10.5 5.13542 10.6771 4.78125 11.0312C4.42708 11.3854 4.25 11.8333 4.25 12.375C4.25 12.9167 4.42708 13.3646 4.78125 13.7188C5.13542 14.0729 5.58333 14.25 6.125 14.25ZM9.875 9.25C10.4167 9.25 10.8646 9.07292 11.2188 8.71875C11.5729 8.36458 11.75 7.91667 11.75 7.375C11.75 6.83333 11.5729 6.38542 11.2188 6.03125C10.8646 5.67708 10.4167 5.5 9.875 5.5C9.33333 5.5 8.88542 5.67708 8.53125 6.03125C8.17708 6.38542 8 6.83333 8 7.375C8 7.91667 8.17708 8.36458 8.53125 8.71875C8.88542 9.07292 9.33333 9.25 9.875 9.25ZM16.125 9.25C16.6667 9.25 17.1146 9.07292 17.4688 8.71875C17.8229 8.36458 18 7.91667 18 7.375C18 6.83333 17.8229 6.38542 17.4688 6.03125C17.1146 5.67708 16.6667 5.5 16.125 5.5C15.5833 5.5 15.1354 5.67708 14.7812 6.03125C14.4271 6.38542 14.25 6.83333 14.25 7.375C14.25 7.91667 14.4271 8.36458 14.7812 8.71875C15.1354 9.07292 15.5833 9.25 16.125 9.25ZM19.875 14.25C20.4167 14.25 20.8646 14.0729 21.2188 13.7188C21.5729 13.3646 21.75 12.9167 21.75 12.375C21.75 11.8333 21.5729 11.3854 21.2188 11.0312C20.8646 10.6771 20.4167 10.5 19.875 10.5C19.3333 10.5 18.8854 10.6771 18.5312 11.0312C18.1771 11.3854 18 11.8333 18 12.375C18 12.9167 18.1771 13.3646 18.5312 13.7188C18.8854 14.0729 19.3333 14.25 19.875 14.25ZM13 23C13.1875 23 13.3387 22.9479 13.4537 22.8438C13.5687 22.7396 13.6258 22.6042 13.625 22.4375C13.625 22.1458 13.4688 21.8021 13.1562 21.4062C12.8438 21.0104 12.6875 20.4167 12.6875 19.625C12.6875 18.75 12.9896 18.0521 13.5938 17.5312C14.1979 17.0104 14.9375 16.75 15.8125 16.75H18C19.375 16.75 20.5521 16.3492 21.5312 15.5475C22.5104 14.7458 23 13.5008 23 11.8125C23 9.29167 22.0367 7.1925 20.11 5.515C18.1833 3.8375 15.8967 2.99917 13.25 3C10.4167 3 8 3.96875 6 5.90625C4 7.84375 3 10.2083 3 13C3 15.7708 3.97417 18.1304 5.9225 20.0788C7.87083 22.0271 10.23 23.0008 13 23Z" fill="black"/>
</svg>
