<svg width="24" height="30" viewBox="0 0 24 30" fill="none" xmlns="http://www.w3.org/2000/svg">
<path d="M4.575 13.9313C4.82974 12.1435 5.72097 10.5077 7.08497 9.32423C8.44898 8.14081 10.1942 7.48926 12 7.48926C13.8058 7.48926 15.551 8.14081 16.915 9.32423C18.279 10.5077 19.1703 12.1435 19.425 13.9313C19.4446 14.0542 19.4394 14.1798 19.41 14.3007C19.3805 14.4217 19.3272 14.5355 19.2532 14.6356C19.1792 14.7358 19.0861 14.8201 18.9791 14.8839C18.8722 14.9476 18.7537 14.9894 18.6304 15.0068C18.5072 15.0243 18.3817 15.017 18.2613 14.9854C18.1409 14.9538 18.0279 14.8986 17.9291 14.8229C17.8303 14.7472 17.7475 14.6526 17.6857 14.5446C17.6238 14.4365 17.584 14.3173 17.5688 14.1938C17.3777 12.8529 16.7093 11.6261 15.6863 10.7385C14.6633 9.85092 13.3544 9.36226 12 9.36226C10.6456 9.36226 9.33673 9.85092 8.31373 10.7385C7.29073 11.6261 6.62231 12.8529 6.43125 14.1938C6.41596 14.3173 6.37622 14.4365 6.31434 14.5446C6.25247 14.6526 6.16971 14.7472 6.07088 14.8229C5.97205 14.8986 5.85914 14.9538 5.73873 14.9854C5.61833 15.017 5.49284 15.0243 5.36958 15.0068C5.24633 14.9894 5.12778 14.9476 5.02085 14.8839C4.91392 14.8201 4.82076 14.7358 4.7468 14.6356C4.67283 14.5355 4.61955 14.4217 4.59005 14.3007C4.56055 14.1798 4.55544 14.0542 4.575 13.9313ZM4.5 17.8125C4.5 17.5639 4.59877 17.3254 4.77459 17.1496C4.9504 16.9738 5.18886 16.875 5.4375 16.875H18.5625C18.8111 16.875 19.0496 16.9738 19.2254 17.1496C19.4012 17.3254 19.5 17.5639 19.5 17.8125V25.3125C19.5 25.5611 19.4012 25.7996 19.2254 25.9754C19.0496 26.1512 18.8111 26.25 18.5625 26.25H5.4375C5.18886 26.25 4.9504 26.1512 4.77459 25.9754C4.59877 25.7996 4.5 25.5611 4.5 25.3125V17.8125ZM6.375 18.75V24.375H17.625V18.75H15.75V19.6875C15.75 19.9361 15.6512 20.1746 15.4754 20.3504C15.2996 20.5262 15.0611 20.625 14.8125 20.625C14.5639 20.625 14.3254 20.5262 14.1496 20.3504C13.9738 20.1746 13.875 19.9361 13.875 19.6875V18.75H6.375Z" fill="black"/>
<path d="M8.25 4.38938V3.75C8.25 2.75544 8.64509 1.80161 9.34835 1.09835C10.0516 0.395088 11.0054 0 12 0C12.9946 0 13.9484 0.395088 14.6517 1.09835C15.3549 1.80161 15.75 2.75544 15.75 3.75V4.38938C20.1187 5.93438 23.25 10.1025 23.25 15V25.3125C23.25 26.5557 22.7561 27.748 21.8771 28.6271C20.998 29.5061 19.8057 30 18.5625 30H5.4375C4.1943 30 3.00201 29.5061 2.12294 28.6271C1.24386 27.748 0.750001 26.5557 0.750001 25.3125V15C0.749169 12.6729 1.47003 10.4028 2.81325 8.50243C4.15648 6.6021 6.05597 5.16508 8.25 4.38938ZM10.125 3.75V3.90562C11.3662 3.69582 12.6338 3.69582 13.875 3.90562V3.75C13.875 3.25272 13.6775 2.77581 13.3258 2.42417C12.9742 2.07254 12.4973 1.875 12 1.875C11.5027 1.875 11.0258 2.07254 10.6742 2.42417C10.3225 2.77581 10.125 3.25272 10.125 3.75ZM12 5.625C9.5136 5.625 7.12903 6.61272 5.37087 8.37087C3.61272 10.129 2.625 12.5136 2.625 15V25.3125C2.625 26.0584 2.92132 26.7738 3.44876 27.3012C3.97621 27.8287 4.69158 28.125 5.4375 28.125H18.5625C19.3084 28.125 20.0238 27.8287 20.5512 27.3012C21.0787 26.7738 21.375 26.0584 21.375 25.3125V15C21.375 12.5136 20.3873 10.129 18.6291 8.37087C16.871 6.61272 14.4864 5.625 12 5.625Z" fill="black"/>
</svg>
