<svg width="25" height="26" viewBox="0 0 25 26" fill="none" xmlns="http://www.w3.org/2000/svg">
<path d="M6.75016 3.08317C6.75016 2.70745 6.60091 2.34711 6.33523 2.08144C6.06955 1.81576 5.70922 1.6665 5.3335 1.6665H2.50016C2.12444 1.6665 1.7641 1.81576 1.49843 2.08144C1.23275 2.34711 1.0835 2.70745 1.0835 3.08317V22.9165C1.0835 23.2922 1.23275 23.6526 1.49843 23.9182C1.7641 24.1839 2.12444 24.3332 2.50016 24.3332H5.3335C5.70922 24.3332 6.06955 24.1839 6.33523 23.9182C6.60091 23.6526 6.75016 23.2922 6.75016 22.9165M6.75016 3.08317V22.9165M6.75016 3.08317C6.75016 2.70745 6.89942 2.34711 7.16509 2.08144C7.43077 1.81576 7.79111 1.6665 8.16683 1.6665H11.0002C11.3759 1.6665 11.7362 1.81576 12.0019 2.08144C12.2676 2.34711 12.4168 2.70745 12.4168 3.08317V22.9165C12.4168 23.2922 12.2676 23.6526 12.0019 23.9182C11.7362 24.1839 11.3759 24.3332 11.0002 24.3332H8.16683C7.79111 24.3332 7.43077 24.1839 7.16509 23.9182C6.89942 23.6526 6.75016 23.2922 6.75016 22.9165M1.0835 7.33317H6.75016M6.75016 18.6665H12.4168" stroke="black" stroke-width="2" stroke-linecap="round" stroke-linejoin="round"/>
<path d="M13.8334 8.7501L19.5001 7.33343M16.6668 18.6668L22.2244 17.2784M13.5544 2.4601L16.6484 1.70927C17.4445 1.51802 18.2534 1.97843 18.4645 2.74627L23.6991 21.7551C23.7915 22.1031 23.7506 22.4731 23.5844 22.7925C23.4183 23.1119 23.1389 23.3578 22.8009 23.482L22.6125 23.5401L19.5185 24.2909C18.7224 24.4822 17.9134 24.0218 17.7024 23.2539L12.4678 4.2451C12.3754 3.8971 12.4163 3.52715 12.5825 3.20772C12.7486 2.88829 13.028 2.64239 13.3659 2.51818L13.5544 2.4601Z" stroke="black" stroke-width="2" stroke-linecap="round" stroke-linejoin="round"/>
</svg>
