<svg width="20" height="20" viewBox="0 0 20 20" fill="none" xmlns="http://www.w3.org/2000/svg">
<path fill-rule="evenodd" clip-rule="evenodd" d="M1.46299 13.642C1.47521 13.5599 1.46158 13.476 1.42399 13.402C1.1857 12.892 0.971468 12.371 0.781995 11.841C0.601995 11.324 0.401995 10.641 0.374995 9.97896C0.174995 4.92296 4.394 0.902959 9.465 0.701959C14.536 0.500959 19.06 4.17296 19.261 9.22896C19.462 14.285 15.242 18.305 10.171 18.506C9.21038 18.545 8.24915 18.4453 7.317 18.21L4.54799 19.348C2.55599 20.166 0.460995 18.423 0.902995 16.315L1.46299 13.642ZM3.42099 14.053C3.52151 13.5497 3.45808 13.0275 3.23999 12.563C2.84999 11.719 2.40199 10.613 2.37399 9.89996C2.22199 6.08696 5.43199 2.86396 9.54399 2.69996C13.655 2.53696 17.111 5.49596 17.262 9.30896C17.414 13.122 14.204 16.345 10.092 16.509C9.22802 16.5436 8.36414 16.4378 7.534 16.196C7.32283 16.1315 7.09601 16.141 6.89099 16.223L3.78799 17.498C3.67318 17.5451 3.54769 17.5601 3.425 17.5413C3.30231 17.5225 3.18706 17.4706 3.09164 17.3913C2.99622 17.3119 2.92424 17.208 2.88342 17.0908C2.84261 16.9736 2.83451 16.8474 2.85999 16.726L3.42099 14.053Z" fill="black"/>
</svg>
