<svg width="27" height="28" viewBox="0 0 27 28" fill="none" xmlns="http://www.w3.org/2000/svg">
<path d="M1.50875 2.67687C1.80313 1.55375 2.82687 0.875 3.90313 0.875C4.56687 0.875 5.17063 1.12437 5.63 1.53125C6.13648 1.1064 6.77643 0.873535 7.4375 0.873535C8.09857 0.873535 8.73852 1.1064 9.245 1.53125C9.72027 1.10747 10.3351 0.873812 10.9719 0.875C12.0481 0.875 13.0719 1.55375 13.3663 2.67687C13.6475 3.74937 14 5.47812 14 7.4375C14 8.53167 13.7263 9.60846 13.204 10.5699C12.6817 11.5314 11.9273 12.347 11.0094 12.9425C10.5013 13.2744 10.25 13.7019 10.25 14.0675V14.81C10.25 14.8525 10.2525 14.8938 10.2575 14.9338C10.3212 15.3988 10.5519 17.1256 10.7675 18.9162C10.9794 20.6731 11.1875 22.5894 11.1875 23.375C11.1875 24.3696 10.7924 25.3234 10.0892 26.0266C9.38589 26.7299 8.43206 27.125 7.4375 27.125C6.44294 27.125 5.48911 26.7299 4.78585 26.0266C4.08259 25.3234 3.6875 24.3696 3.6875 23.375C3.6875 22.5875 3.89562 20.675 4.1075 18.9162C4.32312 17.1256 4.55375 15.3988 4.6175 14.9338L4.625 14.81V14.0675C4.625 13.7019 4.37375 13.2744 3.86563 12.9425C2.94773 12.347 2.1933 11.5314 1.67099 10.5699C1.14867 9.60846 0.875047 8.53167 0.875 7.4375C0.875 5.47812 1.2275 3.74937 1.50875 2.67687ZM10.25 8.375C10.25 8.62364 10.1512 8.8621 9.97541 9.03791C9.7996 9.21373 9.56114 9.3125 9.3125 9.3125C9.06386 9.3125 8.8254 9.21373 8.64959 9.03791C8.47377 8.8621 8.375 8.62364 8.375 8.375V3.6875C8.375 3.43886 8.27623 3.2004 8.10041 3.02459C7.9246 2.84877 7.68614 2.75 7.4375 2.75C7.18886 2.75 6.9504 2.84877 6.77459 3.02459C6.59877 3.2004 6.5 3.43886 6.5 3.6875V8.375C6.5 8.62364 6.40123 8.8621 6.22541 9.03791C6.0496 9.21373 5.81114 9.3125 5.5625 9.3125C5.31386 9.3125 5.0754 9.21373 4.89959 9.03791C4.72377 8.8621 4.625 8.62364 4.625 8.375V3.47187C4.625 3.28042 4.54895 3.09681 4.41357 2.96143C4.27819 2.82605 4.09458 2.75 3.90313 2.75C3.59188 2.75 3.37813 2.93562 3.32188 3.15312C2.95237 4.55162 2.76024 5.99105 2.75 7.4375C2.74991 8.21944 2.94544 8.98899 3.31877 9.67605C3.6921 10.3631 4.23138 10.9459 4.8875 11.3713C5.71063 11.9056 6.5 12.845 6.5 14.0675V14.81C6.5 14.935 6.49188 15.06 6.47563 15.185C6.41187 15.6462 6.18313 17.3619 5.96938 19.1412C5.75187 20.9506 5.5625 22.73 5.5625 23.375C5.5625 23.8723 5.76004 24.3492 6.11167 24.7008C6.46331 25.0525 6.94022 25.25 7.4375 25.25C7.93478 25.25 8.41169 25.0525 8.76332 24.7008C9.11496 24.3492 9.3125 23.8723 9.3125 23.375C9.3125 22.73 9.125 20.9506 8.90563 19.1394C8.69187 17.3619 8.46313 15.6462 8.39937 15.1831C8.38511 15.0599 8.37698 14.936 8.375 14.8119V14.0694C8.375 12.8469 9.16438 11.9075 9.9875 11.3731C10.6439 10.9476 11.1833 10.3645 11.5567 9.6771C11.93 8.98969 12.1254 8.21976 12.125 7.4375C12.125 5.69 11.81 4.13 11.5531 3.15312C11.4969 2.9375 11.2812 2.75 10.9719 2.75C10.7804 2.75 10.5968 2.82605 10.4614 2.96143C10.3261 3.09681 10.25 3.28042 10.25 3.47187V8.375ZM15.875 9.3125C15.875 7.07474 16.7639 4.92862 18.3463 3.34629C19.9286 1.76395 22.0747 0.875 24.3125 0.875C24.5611 0.875 24.7996 0.973772 24.9754 1.14959C25.1512 1.3254 25.25 1.56386 25.25 1.8125V13.0119L25.2856 13.3438C25.4348 14.7431 25.5779 16.1431 25.715 17.5438C25.9456 19.8988 26.1875 22.5387 26.1875 23.375C26.1875 24.3696 25.7924 25.3234 25.0891 26.0266C24.3859 26.7299 23.4321 27.125 22.4375 27.125C21.4429 27.125 20.4891 26.7299 19.7859 26.0266C19.0826 25.3234 18.6875 24.3696 18.6875 23.375C18.6875 22.5387 18.9294 19.8988 19.16 17.5438C19.2781 16.3494 19.3962 15.2056 19.4844 14.3581L19.5219 14H17.75C17.2527 14 16.7758 13.8025 16.4242 13.4508C16.0725 13.0992 15.875 12.6223 15.875 12.125V9.3125ZM21.4944 13.1619L21.455 13.5406C21.3084 14.9358 21.1659 16.3315 21.0275 17.7275C20.7894 20.1406 20.5625 22.6588 20.5625 23.375C20.5625 23.8723 20.76 24.3492 21.1117 24.7008C21.4633 25.0525 21.9402 25.25 22.4375 25.25C22.9348 25.25 23.4117 25.0525 23.7633 24.7008C24.115 24.3492 24.3125 23.8723 24.3125 23.375C24.3125 22.6569 24.0856 20.1406 23.8475 17.7275C23.71 16.3314 23.5675 14.9357 23.42 13.5406L23.3806 13.1637L23.375 13.0625V2.81562C21.8128 3.0411 20.3843 3.82204 19.3512 5.01529C18.318 6.20854 17.7496 7.73415 17.75 9.3125V12.125H20.5625C20.694 12.125 20.824 12.1527 20.944 12.2063C21.0641 12.2598 21.1716 12.3381 21.2594 12.4358C21.3473 12.5336 21.4136 12.6488 21.4541 12.7739C21.4946 12.8989 21.5083 13.0311 21.4944 13.1619Z" fill="black"/>
</svg>
