<svg width="31" height="31" viewBox="0 0 31 31" fill="none" xmlns="http://www.w3.org/2000/svg">
<path d="M15.5 29.375L28.0353 22.8877C28.5225 22.6348 28.766 22.5099 28.9433 22.3234C29.1004 22.1597 29.2193 21.9633 29.2917 21.7484C29.375 21.5032 29.375 21.2304 29.375 20.6815V8.61336M15.5 29.375L2.96471 22.8877C2.47754 22.6348 2.23396 22.5099 2.05667 22.3234C1.89963 22.1597 1.78067 21.9633 1.70825 21.7484C1.625 21.5032 1.625 21.2288 1.625 20.6784V8.61336M15.5 29.375V15.4029M29.375 8.61336L15.5 15.4029M29.375 8.61336L22.4375 5.02128M1.625 8.61336L14.373 2.01657C14.7862 1.80382 14.9912 1.69591 15.2086 1.65428C15.4011 1.61723 15.5989 1.61723 15.7914 1.65428C16.0072 1.69591 16.2138 1.80382 16.6254 2.01657L22.4375 5.02128M1.625 8.61336L8.5625 12.0097M15.5 15.4029L8.5625 12.0081M22.4375 5.02128L8.5625 12.0081M8.5625 12.0081V15.4029" stroke="black" stroke-width="1.5" stroke-linecap="round" stroke-linejoin="round"/>
</svg>
