<svg width="26" height="27" viewBox="0 0 26 27" fill="none" xmlns="http://www.w3.org/2000/svg">
<path d="M1.375 20.7917C1.375 21.952 1.83594 23.0648 2.65641 23.8853C3.47688 24.7058 4.58968 25.1667 5.75 25.1667C6.91032 25.1667 8.02312 24.7058 8.84359 23.8853C9.66406 23.0648 10.125 21.952 10.125 20.7917C10.125 19.6314 9.66406 18.5186 8.84359 17.6981C8.02312 16.8776 6.91032 16.4167 5.75 16.4167C4.58968 16.4167 3.47688 16.8776 2.65641 17.6981C1.83594 18.5186 1.375 19.6314 1.375 20.7917ZM15.9583 20.7917C15.9583 21.952 16.4193 23.0648 17.2397 23.8853C18.0602 24.7058 19.173 25.1667 20.3333 25.1667C21.4937 25.1667 22.6065 24.7058 23.4269 23.8853C24.2474 23.0648 24.7083 21.952 24.7083 20.7917C24.7083 19.6314 24.2474 18.5186 23.4269 17.6981C22.6065 16.8776 21.4937 16.4167 20.3333 16.4167C19.173 16.4167 18.0602 16.8776 17.2397 17.6981C16.4193 18.5186 15.9583 19.6314 15.9583 20.7917Z" stroke="black" stroke-width="2" stroke-linecap="round" stroke-linejoin="round"/>
<path d="M10.125 20.7917V1.83334H24.7083V20.7917M10.125 7.66668H24.7083" stroke="black" stroke-width="2" stroke-linecap="round" stroke-linejoin="round"/>
</svg>
