<svg width="15" height="18" viewBox="0 0 15 18" fill="none" xmlns="http://www.w3.org/2000/svg">
<path d="M5.91667 15.625H9.08333C9.08333 16.4958 8.37083 17.2083 7.5 17.2083C6.62917 17.2083 5.91667 16.4958 5.91667 15.625ZM14.625 14.0417V14.8333H0.375V14.0417L1.95833 12.4583V7.70833C1.95833 5.25417 3.54167 3.11667 5.91667 2.40417V2.16667C5.91667 1.29583 6.62917 0.583332 7.5 0.583332C8.37083 0.583332 9.08333 1.29583 9.08333 2.16667V2.40417C11.4583 3.11667 13.0417 5.25417 13.0417 7.70833V12.4583L14.625 14.0417ZM11.4583 7.70833C11.4583 5.49167 9.71667 3.75 7.5 3.75C5.28333 3.75 3.54167 5.49167 3.54167 7.70833V13.25H11.4583V7.70833Z" fill="black"/>
</svg>
