<svg width="30" height="40" viewBox="0 0 30 40" fill="none" xmlns="http://www.w3.org/2000/svg">
<path d="M4.00004 39.3333C2.99171 39.3333 2.12882 38.9745 1.41137 38.2571C0.693929 37.5396 0.334596 36.6761 0.333374 35.6666V17.3333C0.333374 16.3249 0.692707 15.462 1.41137 14.7446C2.13004 14.0271 2.99293 13.6678 4.00004 13.6666H5.83337V9.99992C5.83337 7.46381 6.72743 5.30231 8.51554 3.51542C10.3037 1.72853 12.4652 0.834475 15 0.833253C17.5349 0.832031 19.697 1.72609 21.4864 3.51542C23.2757 5.30475 24.1692 7.46625 24.1667 9.99992V13.6666H26C27.0084 13.6666 27.8719 14.0259 28.5905 14.7446C29.3092 15.4633 29.6679 16.3261 29.6667 17.3333V35.6666C29.6667 36.6749 29.308 37.5384 28.5905 38.2571C27.8731 38.9758 27.0096 39.3345 26 39.3333H4.00004ZM4.00004 35.6666H26V17.3333H4.00004V35.6666ZM15 30.1666C16.0084 30.1666 16.8719 29.8079 17.5905 29.0904C18.3092 28.373 18.6679 27.5095 18.6667 26.4999C18.6655 25.4904 18.3068 24.6275 17.5905 23.9113C16.8743 23.195 16.0108 22.8357 15 22.8333C13.9893 22.8308 13.1264 23.1901 12.4114 23.9113C11.6964 24.6324 11.337 25.4953 11.3334 26.4999C11.3297 27.5046 11.689 28.3681 12.4114 29.0904C13.1337 29.8128 13.9966 30.1715 15 30.1666ZM9.50004 13.6666H20.5V9.99992C20.5 8.47214 19.9653 7.17353 18.8959 6.10409C17.8264 5.03464 16.5278 4.49992 15 4.49992C13.4723 4.49992 12.1737 5.03464 11.1042 6.10409C10.0348 7.17353 9.50004 8.47214 9.50004 9.99992V13.6666Z" fill="white"/>
</svg>
