<svg width="11" height="19" viewBox="0 0 11 19" fill="none" xmlns="http://www.w3.org/2000/svg">
<path d="M7.60019 5.075C7.60019 4.35833 7.36286 3.78333 6.88819 3.35C6.41352 2.91667 5.78419 2.7 5.00019 2.7C4.51686 2.7 4.07952 2.80433 3.68819 3.013C3.29686 3.22167 2.95919 3.52567 2.67519 3.925C2.40852 4.30833 2.04586 4.52933 1.58719 4.588C1.12852 4.64667 0.732858 4.52567 0.400191 4.225C0.166858 4.00833 0.0378577 3.74167 0.013191 3.425C-0.0114757 3.10833 0.0675243 2.80833 0.250191 2.525C0.783524 1.725 1.46286 1.10433 2.28819 0.663C3.11352 0.221667 4.01752 0.000666667 5.00019 0C6.61686 0 7.92952 0.458333 8.93819 1.375C9.94686 2.29167 10.4509 3.49167 10.4502 4.975C10.4502 5.725 10.2919 6.4 9.97519 7C9.65852 7.6 9.07519 8.30833 8.22519 9.125C7.60852 9.70833 7.19186 10.1627 6.97519 10.488C6.75852 10.8133 6.61686 11.184 6.55019 11.6C6.48352 12 6.31252 12.3333 6.03719 12.6C5.76186 12.8667 5.43286 13 5.05019 13C4.66752 13 4.33852 12.871 4.06319 12.613C3.78786 12.355 3.65019 12.034 3.65019 11.65C3.65019 11 3.79186 10.4043 4.07519 9.863C4.35852 9.32167 4.83352 8.75067 5.50019 8.15C6.35019 7.4 6.91286 6.821 7.18819 6.413C7.46352 6.005 7.60086 5.559 7.60019 5.075ZM5.00019 19C4.45019 19 3.97952 18.8043 3.58819 18.413C3.19686 18.0217 3.00086 17.5507 3.00019 17C2.99952 16.4493 3.19552 15.9787 3.58819 15.588C3.98086 15.1973 4.45152 15.0013 5.00019 15C5.54886 14.9987 6.01986 15.1947 6.41319 15.588C6.80652 15.9813 7.00219 16.452 7.00019 17C6.99819 17.548 6.80252 18.019 6.41319 18.413C6.02386 18.807 5.55286 19.0027 5.00019 19Z" fill="black"/>
</svg>
