<svg width="29" height="29" viewBox="0 0 29 29" fill="none" xmlns="http://www.w3.org/2000/svg">
<path d="M23.1246 9.5875C23.3001 9.41172 23.3988 9.17344 23.3988 8.925C23.3988 8.67656 23.3001 8.43828 23.1246 8.2625L20.7396 5.875C20.5619 5.7094 20.3268 5.61925 20.0839 5.62353C19.8411 5.62782 19.6093 5.72621 19.4376 5.89797C19.2658 6.06974 19.1674 6.30147 19.1631 6.54435C19.1588 6.78722 19.249 7.02228 19.4146 7.2L21.8008 9.5875C21.9766 9.76306 22.2149 9.86168 22.4633 9.86168C22.7118 9.86168 22.9488 9.76306 23.1246 9.5875ZM10.3983 20.99C10.4904 21.0758 10.5643 21.1793 10.6156 21.2943C10.6668 21.4093 10.6943 21.5335 10.6966 21.6593C10.6988 21.7852 10.6756 21.9103 10.6285 22.027C10.5813 22.1437 10.5112 22.2498 10.4221 22.3388C10.3331 22.4278 10.2271 22.498 10.1103 22.5452C9.99359 22.5923 9.86856 22.6155 9.74268 22.6132C9.6168 22.611 9.49266 22.5835 9.37766 22.5322C9.26266 22.481 9.15916 22.4071 9.07333 22.315L6.68583 19.9288C6.52023 19.751 6.43008 19.516 6.43436 19.2731C6.43865 19.0302 6.53704 18.7985 6.7088 18.6267C6.88057 18.455 7.1123 18.3566 7.35518 18.3523C7.59805 18.348 7.83311 18.4382 8.01083 18.6038L10.3983 20.99ZM27.9471 1.0875C27.4314 0.57226 26.7323 0.282837 26.0033 0.282837C25.2744 0.282837 24.5752 0.57226 24.0596 1.0875L22.9371 2.21L22.4783 1.75125C22.1209 1.39338 21.6895 1.11809 21.2143 0.944728C20.7392 0.771361 20.2319 0.704116 19.728 0.747716C19.2241 0.791317 18.7358 0.944704 18.2975 1.19711C17.8592 1.44951 17.4815 1.79481 17.1908 2.20875C16.5145 2.04597 15.8078 2.05956 15.1383 2.24823C14.4687 2.43689 13.8589 2.79431 13.3671 3.28625L13.0858 3.56625C12.7084 3.94351 12.4091 4.39142 12.2048 4.88439C12.0006 5.37737 11.8954 5.90576 11.8954 6.43937C11.8954 6.97299 12.0006 7.50138 12.2048 7.99436C12.4091 8.48733 12.7084 8.93524 13.0858 9.3125L14.4608 10.6863L10.6871 14.4587L9.31333 13.085C8.55147 12.3232 7.51821 11.8952 6.44083 11.8952C5.36345 11.8952 4.33019 12.3232 3.56833 13.085L3.28708 13.3663C2.79516 13.8583 2.43785 14.4684 2.24939 15.1382C2.06094 15.8079 2.04766 16.5149 2.21083 17.1912C1.79689 17.4819 1.45159 17.8596 1.19919 18.2979C0.946785 18.7362 0.793397 19.2245 0.749797 19.7284C0.706197 20.2323 0.773442 20.7396 0.946808 21.2148C1.12017 21.6899 1.39546 22.1213 1.75333 22.4787L2.21083 22.935L1.05708 24.09C0.541566 24.6055 0.251953 25.3047 0.251953 26.0337C0.251953 26.7628 0.541566 27.462 1.05708 27.9775C1.5726 28.493 2.27178 28.7826 3.00083 28.7826C3.72988 28.7826 4.42907 28.493 4.94458 27.9775L6.09833 26.8225L6.55708 27.2812C6.91459 27.6387 7.34597 27.9136 7.82096 28.0867C8.29595 28.2598 8.80306 28.3269 9.30673 28.2834C9.8104 28.2398 10.2984 28.0865 10.7366 27.8344C11.1748 27.5822 11.5525 27.2373 11.8433 26.8237C12.5198 26.9868 13.2268 26.9733 13.8966 26.7846C14.5663 26.5959 15.1764 26.2384 15.6683 25.7462L15.9483 25.465C16.7101 24.7031 17.1381 23.6699 17.1381 22.5925C17.1381 21.5151 16.7101 20.4819 15.9483 19.72L14.5746 18.345L18.3471 14.5725L19.7221 15.9475C20.4839 16.7093 21.5172 17.1373 22.5946 17.1373C23.672 17.1373 24.7052 16.7093 25.4671 15.9475L25.7471 15.6663C26.2392 15.1743 26.5968 14.5643 26.7854 13.8945C26.9741 13.2247 26.9876 12.5177 26.8246 11.8413C26.9862 11.7288 27.1387 11.6004 27.2821 11.4562C27.9315 10.8063 28.2963 9.92506 28.2963 9.00625C28.2963 8.08744 27.9315 7.20622 27.2821 6.55625L26.8246 6.09625L27.9458 4.975C28.4611 4.45934 28.7505 3.76021 28.7505 3.03125C28.7505 2.30229 28.4623 1.60316 27.9471 1.0875ZM13.2471 17.0212L12.0121 15.7863L15.7846 12.0138L17.0208 13.2487L13.2471 17.0212ZM4.77208 25.4975L3.61708 26.6525C3.45284 26.8142 3.23138 26.9044 3.00092 26.9035C2.77047 26.9027 2.54968 26.8108 2.38664 26.6479C2.2236 26.4851 2.13151 26.2644 2.13042 26.0339C2.12933 25.8035 2.21934 25.5819 2.38083 25.4175L3.53583 24.2625L4.77208 25.4975ZM25.4971 4.7725L24.2621 3.53625L25.3833 2.415C25.4642 2.3327 25.5605 2.26722 25.6668 2.22235C25.7731 2.17748 25.8872 2.15409 26.0025 2.15355C26.1179 2.153 26.2322 2.17531 26.3389 2.21918C26.4456 2.26304 26.5426 2.32761 26.6242 2.40914C26.7058 2.49067 26.7705 2.58756 26.8144 2.69421C26.8584 2.80086 26.8808 2.91517 26.8804 3.03053C26.88 3.14589 26.8567 3.26003 26.8119 3.36635C26.7672 3.47267 26.7018 3.56908 26.6196 3.65L25.4971 4.7725ZM18.9021 3.0775C19.2005 2.7792 19.6051 2.61162 20.0271 2.61162C20.449 2.61162 20.8537 2.7792 21.1521 3.0775L25.9558 7.8825C26.1461 8.07262 26.285 8.30789 26.3596 8.5663C26.4341 8.82471 26.4419 9.09781 26.3822 9.36006C26.3226 9.62231 26.1973 9.86513 26.0182 10.0658C25.8392 10.2665 25.6121 10.4185 25.3583 10.5075C25.2324 10.5514 25.1173 10.6218 25.0207 10.7137C24.9241 10.8057 24.8482 10.9173 24.7982 11.0409C24.7481 11.1645 24.725 11.2974 24.7305 11.4307C24.7359 11.564 24.7697 11.6946 24.8296 11.8138C25.2421 12.6337 25.1046 13.6588 24.4208 14.3413L24.1396 14.6225C23.9364 14.8257 23.6953 14.9868 23.4299 15.0967C23.1645 15.2067 22.88 15.2633 22.5927 15.2633C22.3054 15.2633 22.0209 15.2067 21.7555 15.0967C21.4901 14.9868 21.249 14.8257 21.0458 14.6225L14.4121 7.9875C14.2089 7.78437 14.0478 7.54321 13.9378 7.2778C13.8279 7.01238 13.7713 6.72791 13.7713 6.44063C13.7713 6.15334 13.8279 5.86887 13.9378 5.60345C14.0478 5.33804 14.2089 5.09688 14.4121 4.89375L14.6933 4.6125C15.0183 4.28749 15.4373 4.07309 15.891 3.99972C16.3447 3.92635 16.81 3.99773 17.2208 4.20375C17.3399 4.26344 17.4704 4.29706 17.6036 4.30236C17.7367 4.30766 17.8694 4.28453 17.9929 4.23449C18.1164 4.18446 18.2278 4.10868 18.3197 4.0122C18.4116 3.91573 18.4819 3.80077 18.5258 3.675C18.6021 3.45875 18.7271 3.25375 18.9033 3.0775M7.98708 14.4125L14.6233 21.0475C14.8265 21.2506 14.9876 21.4918 15.0976 21.7572C15.2075 22.0226 15.2641 22.3071 15.2641 22.5944C15.2641 22.8817 15.2075 23.1661 15.0976 23.4315C14.9876 23.697 14.8265 23.9381 14.6233 24.1412L14.3421 24.4212C14.0172 24.7467 13.598 24.9615 13.144 25.0351C12.69 25.1087 12.2244 25.0374 11.8133 24.8312C11.6943 24.7715 11.5639 24.7379 11.4308 24.7325C11.2978 24.7271 11.1651 24.7501 11.0416 24.8C10.9181 24.8499 10.8067 24.9256 10.7148 25.0219C10.6228 25.1183 10.5524 25.2331 10.5083 25.3587C10.4193 25.6125 10.2673 25.8396 10.0666 26.0187C9.86596 26.1977 9.62314 26.323 9.36089 26.3827C9.09864 26.4424 8.82554 26.4346 8.56713 26.36C8.30872 26.2854 8.07345 26.1465 7.88333 25.9562L3.07833 21.1525C2.88812 20.9623 2.74925 20.7269 2.67469 20.4684C2.60014 20.2099 2.59234 19.9367 2.65202 19.6744C2.7117 19.4121 2.83691 19.1692 3.01596 18.9684C3.195 18.7676 3.42203 18.6155 3.67583 18.5263C3.80149 18.4821 3.91632 18.4118 4.01266 18.3198C4.109 18.2279 4.18464 18.1165 4.23455 17.993C4.28446 17.8695 4.30749 17.7368 4.30211 17.6038C4.29672 17.4707 4.26305 17.3403 4.20333 17.2213C3.99718 16.8102 3.92584 16.3445 3.99944 15.8906C4.07304 15.4366 4.28785 15.0174 4.61333 14.6925L4.89458 14.4125C5.30477 14.0026 5.86094 13.7723 6.44083 13.7723C7.02072 13.7723 7.57689 14.0026 7.98708 14.4125Z" fill="black"/>
</svg>
